<svg xmlns="http://www.w3.org/2000/svg" width="68" height="68" viewBox="0 0 68 68">
  <g id="cultur-icon" transform="translate(-286 -641)">
    <circle id="Ellipse_3" data-name="Ellipse 3" cx="34" cy="34" r="34" transform="translate(286 641)" fill="#fff"/>
    <path id="landmark-solid" d="M15.957.279a2.138,2.138,0,0,1,2.112,0L29.477,6.793l.286.113v.06l3.181,1.82a2.125,2.125,0,0,1-1.049,3.971H2.138A2.125,2.125,0,0,1,1.089,8.786l3.174-1.82v-.06L4.555,6.8ZM4.263,14.875h4.25v12.75h2.656V14.875h4.25v12.75h3.188V14.875h4.25v12.75h2.656V14.875h4.25V27.911a1.155,1.155,0,0,1,.12.073l3.187,2.125A2.123,2.123,0,0,1,31.888,34H2.138A2.123,2.123,0,0,1,.963,30.109L4.15,27.984c.04-.027.08-.046.12-.073V14.875Z" transform="translate(302.984 656)" fill="#66bb78"/>
  </g>
</svg>
