<svg xmlns="http://www.w3.org/2000/svg" width="68" height="68" viewBox="0 0 68 68">
  <g id="hiking-icon" transform="translate(-110 -641)">
    <g id="hiking-svg">
      <circle id="Ellipse_3" data-name="Ellipse 3" cx="34" cy="34" r="34" transform="translate(110 641)" fill="#fff"/>
      <path id="person-hiking-solid" d="M18.594,3.188a3.188,3.188,0,1,1,3.188,3.188,3.187,3.187,0,0,1-3.187-3.187ZM22,15.32l-1.268,5.067,3.3,3.3a3.188,3.188,0,0,1,.936,2.251v5.937a2.125,2.125,0,0,1-4.25,0V26.383l-4.907-4.907a4.235,4.235,0,0,1-1.122-4l1.355-5.578a4.2,4.2,0,0,1,5.093-3.081,5.226,5.226,0,0,1,3.081,2.171L26.1,13.813h2.052V12.219a1.594,1.594,0,1,1,3.187,0V32.406a1.594,1.594,0,1,1-3.187,0V18.063H25.54a3.181,3.181,0,0,1-2.65-1.421l-.883-1.328ZM11.23,31.337l2.4-9.157a6.3,6.3,0,0,0,.671.79l2.782,2.782-1.753,6.661a2.125,2.125,0,0,1-4.111-1.082ZM14.915,8.361,12.578,17.7a1.6,1.6,0,0,1-1.806,1.189L7.59,18.355a1.6,1.6,0,0,1-1.275-1.992l1.647-6.07a5.316,5.316,0,0,1,5.127-3.918h.279a1.6,1.6,0,0,1,1.547,1.979Z" transform="translate(125.198 658)" fill="#66bb78"/>
    </g>
  </g>
</svg>
