<svg xmlns="http://www.w3.org/2000/svg" width="68" height="68" viewBox="0 0 68 68">
  <g id="hippo-icon" transform="translate(-22 -641)">
    <circle id="Ellipse_3" data-name="Ellipse 3" cx="34" cy="34" r="34" transform="translate(22 641)" fill="#fff"/>
    <path id="hippo-solid" d="M31.452,40.495a1.847,1.847,0,0,1,2.619,0L35.4,41.824c.147-.008.3-.015.448-.015h2.472a6.133,6.133,0,0,1,2.442.5l1.2-1.2a1.852,1.852,0,0,1,2.619,2.619l-1,1a6.146,6.146,0,0,1,.927,3.253,2.043,2.043,0,0,0,1.29,1.777,6.18,6.18,0,0,1,1.182,10.585v2.472a1.24,1.24,0,0,1-1.236,1.236H43.273a1.24,1.24,0,0,1-1.236-1.236V61.588H37.092v1.236a1.24,1.24,0,0,1-1.236,1.236H33.383a1.24,1.24,0,0,1-1.236-1.236v-1.36a6.15,6.15,0,0,1-2.472-1.113c-.116-.085-.224-.178-.332-.27a6.166,6.166,0,0,1-2.14-4.674,1.236,1.236,0,0,0-2.472,0,8.657,8.657,0,0,0,4.945,7.819v.834a2.47,2.47,0,0,0,2.472,2.472H34.62v4.945a2.47,2.47,0,0,1-2.472,2.472H27.2a2.47,2.47,0,0,1-2.472-2.472V65.605a13.65,13.65,0,0,1-9.89,0v5.872a2.47,2.47,0,0,1-2.472,2.472H7.423A2.47,2.47,0,0,1,4.95,71.478V62.291l-1.4,3.137a1.851,1.851,0,1,1-3.384-1.5L1.86,60.112A7.145,7.145,0,0,0,2.478,57.2,15.4,15.4,0,0,1,17.3,41.816l.015-.008h4.945a24.952,24.952,0,0,1,9.055,1.986c.131-.139.27-.278.41-.4l-.27-.27a1.847,1.847,0,0,1,0-2.619Zm5.64,14.294a1.854,1.854,0,1,0-1.854,1.854A1.854,1.854,0,0,0,37.092,54.789Zm6.8,1.854a1.854,1.854,0,1,0-1.854-1.854A1.854,1.854,0,0,0,43.891,56.643Zm-6.8-8.654a1.236,1.236,0,1,0-1.236,1.236A1.236,1.236,0,0,0,37.092,47.989ZM40.8,49.226a1.236,1.236,0,1,0-1.236-1.236A1.236,1.236,0,0,0,40.8,49.226Z" transform="translate(30.994 617.86)" fill="#66bb78"/>
  </g>
</svg>
