<?xml version="1.0" encoding="UTF-8"?>
<svg id="Layer_1" data-name="Layer 1" xmlns="http://www.w3.org/2000/svg" viewBox="0 0 74.05 79.63">
  <defs>
    <style>
      .cls-1 {
        isolation: isolate;
      }

      .cls-2, .cls-3 {
        stroke-width: 0px;
      }

      .cls-3 {
        fill: #e6e5e5;
      }
    </style>
  </defs>
  <g id="turist-logo2">
    <path id="Path_157" data-name="Path 157" class="cls-3" d="m40.24,3.16c17.55-11.74,34.35,11.75,33.8,29.3-.24,7.65-4.48,16.68-10.91,25.51-7.57,10.4-13.37,16.38-22.88,20.66C23.37,86.23-.12,48.32,0,30.79S22.69,14.9,40.24,3.16Z"/>
    <g class="cls-1">
      <path class="cls-2" d="m56.17,21.36c0,.49-.05.86-.16,1.11-.11.25-.24.43-.42.53s-.37.15-.59.16c-.22,0-.44.01-.65.01-.55,0-1.05,0-1.5-.01-.45,0-.9-.02-1.34-.04-.45-.02-.92-.03-1.42-.04-.5,0-1.07-.01-1.72-.01-.68,0-1.5.06-2.44.18-.94.12-1.88.27-2.79.45-.92.18-1.75.37-2.5.57-.75.2-1.26.39-1.54.55-.13.08-.25.2-.37.35-.11.15-.21.33-.29.51-.08.19-.15.38-.21.57-.06.2-.09.37-.09.51-.16,1.73-.35,3.43-.55,5.13-.2,1.69-.39,3.37-.56,5.04-.17,1.67-.32,3.32-.44,4.96-.12,1.64-.18,3.26-.18,4.87,0,.28.04.69.11,1.23.07.55.15,1.1.24,1.66.09.56.17,1.06.24,1.5s.11.69.11.76c0,.33-.05.66-.15.99-.1.33-.23.63-.4.9-.17.27-.38.49-.63.66-.25.17-.52.26-.82.26-.2,0-.41-.06-.63-.17-.23-.11-.45-.27-.67-.46s-.42-.43-.6-.7c-.18-.27-.32-.56-.42-.87-.13-.41-.24-.88-.32-1.4-.08-.53-.15-1.08-.2-1.65-.05-.57-.08-1.14-.1-1.7-.02-.56-.02-1.07-.02-1.54s0-.86.01-1.18c0-.33.01-.54.01-.63,0-.49.05-1.26.15-2.32.1-1.06.22-2.24.37-3.55.15-1.31.31-2.66.48-4.05.17-1.39.33-2.67.48-3.82.15-1.16.27-2.11.37-2.86.1-.75.15-1.13.15-1.15,0-.26-.06-.45-.17-.56-.11-.11-.24-.19-.39-.22-.15-.03-.28-.04-.4-.02-.12.02-.19.02-.21.02-.62,0-1.42.06-2.39.17-.98.11-2.02.24-3.12.38-1.11.14-2.23.26-3.38.38-1.15.11-2.21.17-3.19.17h-.68c-.23,0-.46-.02-.7-.07-.24-.05-.47-.14-.71-.27-.24-.13-.48-.32-.72-.56-.02-.16-.03-.37-.04-.63,0-.26.02-.52.07-.79.06-.27.17-.51.34-.73.17-.22.43-.37.77-.45.73-.16,1.57-.29,2.5-.39.94-.1,1.89-.18,2.86-.24.97-.06,1.91-.13,2.83-.2.92-.06,1.74-.15,2.45-.24.5-.06,1.13-.15,1.88-.24.75-.1,1.52-.2,2.31-.32.79-.11,1.55-.23,2.29-.34.74-.11,1.35-.22,1.82-.32.98-.2,2.01-.42,3.11-.68,1.1-.26,2.21-.51,3.33-.74,1.12-.24,2.24-.43,3.34-.59,1.11-.16,2.17-.23,3.17-.23.11,0,.31,0,.6.01.28,0,.61.03.96.06.36.03.74.08,1.15.15.41.07.79.16,1.15.27.18.05.34.16.48.32.14.16.26.34.35.54s.17.39.23.59c.06.2.08.36.08.49Z"/>
    </g>
  </g>
</svg>